<svg width="31" height="32" viewBox="0 0 31 32" fill="none" xmlns="http://www.w3.org/2000/svg">
<path d="M22.258 19.2C22.382 18.144 22.475 17.088 22.475 16C22.475 14.912 22.382 13.856 22.258 12.8H27.497C27.745 13.824 27.9 14.896 27.9 16C27.9 17.104 27.745 18.176 27.497 19.2M19.5145 28.096C20.4445 26.32 21.1575 24.4 21.6535 22.4H26.226C24.7243 25.0692 22.3419 27.0912 19.5145 28.096M19.127 19.2H11.873C11.718 18.144 11.625 17.088 11.625 16C11.625 14.912 11.718 13.84 11.873 12.8H19.127C19.2665 13.84 19.375 14.912 19.375 16C19.375 17.088 19.2665 18.144 19.127 19.2ZM15.5 28.736C14.2135 26.816 13.175 24.688 12.5395 22.4H18.4605C17.825 24.688 16.7865 26.816 15.5 28.736ZM9.3 9.6H4.774C6.26023 6.92354 8.64093 4.89838 11.47 3.904C10.54 5.68 9.8425 7.6 9.3 9.6ZM4.774 22.4H9.3C9.8425 24.4 10.54 26.32 11.47 28.096C8.64687 27.0907 6.26951 25.0684 4.774 22.4M3.503 19.2C3.255 18.176 3.1 17.104 3.1 16C3.1 14.896 3.255 13.824 3.503 12.8H8.742C8.618 13.856 8.525 14.912 8.525 16C8.525 17.088 8.618 18.144 8.742 19.2M15.5 3.248C16.7865 5.168 17.825 7.312 18.4605 9.6H12.5395C13.175 7.312 14.2135 5.168 15.5 3.248M26.226 9.6H21.6535C21.1684 7.61833 20.45 5.70543 19.5145 3.904C22.3665 4.912 24.738 6.944 26.226 9.6ZM15.5 0C6.9285 0 0 7.2 0 16C0 20.2435 1.63303 24.3131 4.53984 27.3137C5.97915 28.7994 7.68786 29.978 9.56841 30.7821C11.449 31.5861 13.4645 32 15.5 32C19.6109 32 23.5533 30.3143 26.4602 27.3137C29.367 24.3131 31 20.2435 31 16C31 13.8989 30.5991 11.8183 29.8201 9.87706C29.0412 7.93586 27.8995 6.17203 26.4602 4.68629C25.0208 3.20055 23.3121 2.022 21.4316 1.21793C19.551 0.413852 17.5355 0 15.5 0V0Z" fill="white" fill-opacity="0.75"/>
</svg>
