<svg width="28" height="27" viewBox="0 0 28 27" fill="none" xmlns="http://www.w3.org/2000/svg">
<path d="M24.8889 0C25.714 0 26.5053 0.31607 27.0888 0.87868C27.6722 1.44129 28 2.20435 28 3V24C28 24.7956 27.6722 25.5587 27.0888 26.1213C26.5053 26.6839 25.714 27 24.8889 27H3.11111C2.28599 27 1.49467 26.6839 0.911223 26.1213C0.327777 25.5587 0 24.7956 0 24V3C0 2.20435 0.327777 1.44129 0.911223 0.87868C1.49467 0.31607 2.28599 0 3.11111 0H24.8889ZM24.1111 23.25V15.3C24.1111 14.0031 23.5768 12.7593 22.6258 11.8422C21.6748 10.9252 20.3849 10.41 19.04 10.41C17.7178 10.41 16.1778 11.19 15.4311 12.36V10.695H11.0911V23.25H15.4311V15.855C15.4311 14.7 16.3956 13.755 17.5933 13.755C18.1709 13.755 18.7248 13.9762 19.1333 14.3701C19.5417 14.7639 19.7711 15.298 19.7711 15.855V23.25H24.1111ZM6.03556 8.34C6.72865 8.34 7.39337 8.0745 7.88346 7.60191C8.37356 7.12932 8.64889 6.48835 8.64889 5.82C8.64889 4.425 7.48222 3.285 6.03556 3.285C5.33833 3.285 4.66966 3.55208 4.17665 4.02748C3.68364 4.50289 3.40667 5.14768 3.40667 5.82C3.40667 7.215 4.58889 8.34 6.03556 8.34M8.19778 23.25V10.695H3.88889V23.25H8.19778V23.25Z" fill="white" fill-opacity="0.75"/>
</svg>
