<svg width="31" height="32" viewBox="0 0 31 32" fill="none" xmlns="http://www.w3.org/2000/svg">
<path d="M15.5 0C19.7113 0 20.2368 0.0159999 21.8891 0.0959999C23.5398 0.176 24.6636 0.4432 25.6525 0.84C26.6755 1.2464 27.5373 1.7968 28.3991 2.6848C29.1873 3.48463 29.7971 4.45214 30.1862 5.52C30.5691 6.5392 30.8295 7.7008 30.907 9.4048C30.9798 11.1104 31 11.6528 31 16C31 20.3472 30.9845 20.8896 30.907 22.5952C30.8295 24.2992 30.5691 25.4592 30.1862 26.48C29.7982 27.5484 29.1882 28.5162 28.3991 29.3152C27.624 30.1285 26.6868 30.758 25.6525 31.16C24.6651 31.5552 23.5398 31.824 21.8891 31.904C20.2368 31.9792 19.7113 32 15.5 32C11.2887 32 10.7632 31.984 9.1109 31.904C7.46015 31.824 6.3364 31.5552 5.3475 31.16C4.31261 30.7592 3.37517 30.1295 2.6009 29.3152C1.81258 28.5155 1.20269 27.548 0.81375 26.48C0.42935 25.4608 0.1705 24.2992 0.0929999 22.5952C0.0201499 20.8896 0 20.3472 0 16C0 11.6528 0.0154999 11.1104 0.0929999 9.4048C0.1705 7.6992 0.42935 6.5408 0.81375 5.52C1.20162 4.45149 1.81165 3.48371 2.6009 2.6848C3.37539 1.87077 4.31276 1.24117 5.3475 0.84C6.3364 0.4432 7.4586 0.176 9.1109 0.0959999C10.7632 0.0207999 11.2887 0 15.5 0ZM15.5 8C13.4446 8 11.4733 8.84286 10.0199 10.3431C8.56652 11.8434 7.75 13.8783 7.75 16C7.75 18.1217 8.56652 20.1566 10.0199 21.6569C11.4733 23.1571 13.4446 24 15.5 24C17.5554 24 19.5267 23.1571 20.9801 21.6569C22.4335 20.1566 23.25 18.1217 23.25 16C23.25 13.8783 22.4335 11.8434 20.9801 10.3431C19.5267 8.84286 17.5554 8 15.5 8V8ZM25.575 7.6C25.575 7.06957 25.3709 6.56086 25.0075 6.18579C24.6442 5.81071 24.1514 5.6 23.6375 5.6C23.1236 5.6 22.6308 5.81071 22.2675 6.18579C21.9041 6.56086 21.7 7.06957 21.7 7.6C21.7 8.13043 21.9041 8.63914 22.2675 9.01421C22.6308 9.38929 23.1236 9.6 23.6375 9.6C24.1514 9.6 24.6442 9.38929 25.0075 9.01421C25.3709 8.63914 25.575 8.13043 25.575 7.6ZM15.5 11.2C16.7333 11.2 17.916 11.7057 18.788 12.6059C19.6601 13.5061 20.15 14.727 20.15 16C20.15 17.273 19.6601 18.4939 18.788 19.3941C17.916 20.2943 16.7333 20.8 15.5 20.8C14.2667 20.8 13.084 20.2943 12.212 19.3941C11.3399 18.4939 10.85 17.273 10.85 16C10.85 14.727 11.3399 13.5061 12.212 12.6059C13.084 11.7057 14.2667 11.2 15.5 11.2V11.2Z" fill="white" fill-opacity="0.75"/>
</svg>
