<svg width="28" height="28" viewBox="0 0 28 28" fill="none" xmlns="http://www.w3.org/2000/svg">
<path d="M13.055 18.655C13.3117 18.9117 13.6327 19.0339 14.0182 19.0218C14.4027 19.0106 14.7233 18.8767 14.98 18.62C15.2367 18.3633 15.365 18.0367 15.365 17.64C15.365 17.2433 15.2367 16.9167 14.98 16.66L13.72 15.4H18.235C18.6317 15.4 18.9583 15.2656 19.215 14.9968C19.4717 14.7289 19.6 14.3967 19.6 14C19.6 13.6033 19.4661 13.2706 19.1982 13.0018C18.9294 12.7339 18.5967 12.6 18.2 12.6H13.72L15.015 11.305C15.2717 11.0483 15.3944 10.7273 15.3832 10.3418C15.3711 9.95727 15.2367 9.63667 14.98 9.38C14.7233 9.12333 14.3967 8.995 14 8.995C13.6033 8.995 13.2767 9.12333 13.02 9.38L9.38 13.02C9.12333 13.2767 8.995 13.6033 8.995 14C8.995 14.3967 9.12333 14.7233 9.38 14.98L13.055 18.655ZM14 28C12.0633 28 10.2433 27.6323 8.54 26.8968C6.83667 26.1623 5.355 25.165 4.095 23.905C2.835 22.645 1.83773 21.1633 1.1032 19.46C0.367733 17.7567 0 15.9367 0 14C0 12.0633 0.367733 10.2433 1.1032 8.54C1.83773 6.83667 2.835 5.355 4.095 4.095C5.355 2.835 6.83667 1.83727 8.54 1.1018C10.2433 0.367267 12.0633 0 14 0C15.9367 0 17.7567 0.367267 19.46 1.1018C21.1633 1.83727 22.645 2.835 23.905 4.095C25.165 5.355 26.1623 6.83667 26.8968 8.54C27.6323 10.2433 28 12.0633 28 14C28 15.9367 27.6323 17.7567 26.8968 19.46C26.1623 21.1633 25.165 22.645 23.905 23.905C22.645 25.165 21.1633 26.1623 19.46 26.8968C17.7567 27.6323 15.9367 28 14 28Z" fill="#FFEEDF"/>
</svg>
